<?xml version="1.0" encoding="UTF-8"?>
<svg width="166px" height="45px" viewBox="0 0 166 45" version="1.1" xmlns="http://www.w3.org/2000/svg" xmlns:xlink="http://www.w3.org/1999/xlink">
    <!-- Generator: Sketch 50.2 (55047) - http://www.bohemiancoding.com/sketch -->
    <title>Artboard</title>
    <desc>Created with Sketch.</desc>
    <defs></defs>
    <g id="Artboard" stroke="none" stroke-width="1" fill="none" fill-rule="evenodd">
        <g id="Logo" transform="translate(2.000000, 3.000000)">
            <g stroke-width="1" transform="translate(38.000000, 14.000000)" fill="#30313B" id="Group">
                <g>
                    <path d="M6.7591058,2.85074627 L3.05954905,2.85074627 L3.05954905,4.73134328 L6.41568703,4.73134328 L6.41568703,7.20895522 L3.05954905,7.20895522 L3.05954905,11.6268657 L0,11.6268657 L0,0.373134328 L6.7591058,0.373134328 L6.7591058,2.85074627 Z M14.3767585,0 C17.7641164,0 20.8861052,2.3880597 20.8861052,5.79104478 C20.8861052,9.43283582 18.154365,12 14.3767585,12 C10.5991521,12 7.86741183,9.43283582 7.86741183,5.79104478 C7.86741183,2.3880597 10.9894007,0 14.3767585,0 Z M14.3767585,2.8358209 C12.5503951,2.8358209 11.0518404,4.25373134 11.0518404,5.80597015 C11.0518404,7.74626866 12.5503951,9.1641791 14.3767585,9.1641791 C16.203122,9.1641791 17.7016766,7.74626866 17.7016766,5.80597015 C17.7016766,4.25373134 16.203122,2.8358209 14.3767585,2.8358209 Z M29.4559645,0.373134328 L32.5155136,0.373134328 L32.5155136,6.70149254 C32.5155136,8.14925373 32.4530738,9.58208955 31.282328,10.6716418 C30.2989015,11.5970149 28.7535171,11.9253731 27.379842,11.9253731 C26.0061669,11.9253731 24.4607824,11.5970149 23.4773559,10.6716418 C22.3066101,9.58208955 22.2441704,8.14925373 22.2441704,6.70149254 L22.2441704,0.373134328 L25.3037194,0.373134328 L25.3037194,6.29850746 C25.3037194,7.76119403 25.412989,9.35820896 27.379842,9.35820896 C29.3466949,9.35820896 29.4559645,7.76119403 29.4559645,6.29850746 L29.4559645,0.373134328 Z M34.4511467,11.6268657 L34.4511467,0.373134328 L37.5106957,0.373134328 L43.1146656,7.25373134 L43.1458855,7.25373134 L43.1458855,0.373134328 L46.2054346,0.373134328 L46.2054346,11.6268657 L43.1458855,11.6268657 L37.5419156,4.73134328 L37.5106957,11.6268657 L34.4511467,11.6268657 Z M48.2035074,11.6268657 L48.2035074,0.373134328 L52.5430719,0.373134328 C55.8211601,0.373134328 58.5216805,2.8358209 58.5216805,6 C58.5216805,9.1641791 55.8055502,11.6268657 52.5430719,11.6268657 L48.2035074,11.6268657 Z M51.2630565,2.85074627 L51.2630565,9.14925373 L51.949894,9.14925373 C53.7762575,9.14925373 55.3372519,8.19402985 55.3372519,6 C55.3372519,3.98507463 53.9479669,2.85074627 51.9811139,2.85074627 L51.2630565,2.85074627 Z M66.0300636,7.01492537 L69.7296204,11.6268657 L65.920794,11.6268657 L63.0329543,7.29850746 L63.0017344,7.29850746 L63.0017344,11.6268657 L59.9421854,11.6268657 L59.9421854,0.373134328 L64.515899,0.373134328 C66.8417807,0.373134328 68.6057044,1.43283582 68.6057044,3.8358209 C68.6057044,5.3880597 67.7003276,6.73134328 66.0300636,7.01492537 Z M63.0017344,2.6119403 L63.0017344,5.41791045 L63.2983234,5.41791045 C64.2973598,5.41791045 65.4212758,5.23880597 65.4212758,4.01492537 C65.4212758,2.79104478 64.2973598,2.6119403 63.2983234,2.6119403 L63.0017344,2.6119403 Z M73.6008865,6.2238806 L69.261322,0.373134328 L72.9296589,0.373134328 L75.130661,3.43283582 L77.3316631,0.373134328 L81,0.373134328 L76.6604355,6.2238806 L76.6604355,11.6268657 L73.6008865,11.6268657 L73.6008865,6.2238806 Z" id="Foundry"></path>
                </g>
            </g>
            <path d="M127.89,23.7349998 L123.84,23.7349998 L123.06,25.6999998 L119.94,25.6999998 L124.29,14.3899998 L127.5,14.3899998 L131.76,25.6999998 L128.625,25.6999998 L127.89,23.7349998 Z M127.095,21.4849998 L125.895,17.8849998 L125.865,17.8849998 L124.65,21.4849998 L127.095,21.4849998 Z M137.175,16.8799998 L137.175,25.6999998 L134.235,25.6999998 L134.235,16.8799998 L131.805,16.8799998 L131.805,14.3899998 L139.605,14.3899998 L139.605,16.8799998 L137.175,16.8799998 Z M144.015,19.6549998 L140.4,14.3899998 L144.015,14.3899998 L145.74,17.3149998 L147.465,14.3899998 L151.08,14.3899998 L147.465,19.6549998 L151.65,25.6999998 L148.11,25.6999998 L145.74,22.0099998 L143.145,25.6999998 L139.59,25.6999998 L144.015,19.6549998 Z" id="ATX" fill-opacity="0.390341938" fill="#30313B"></path>
            <g id="Oval-+-Logo/Flame-Mask" stroke-width="1" transform="translate(5.000000, 4.000000)">
                <g id="Logo/Flame/Orange" opacity="0.5" transform="translate(13.360825, 5.567010)" fill-rule="nonzero">
                    <path d="M6.96515702,21.94805 C9.05414455,23.2676931 10.7041319,22.8686142 12.2666667,22.7235312 C13.8292014,22.5784481 17.4094791,20.300846 18.4469973,18.2343315 C19.4845155,16.1676126 19.395474,13.7173431 18.2106475,11.7309308 C18.1070393,13.5869727 16.8932846,15.1990297 15.1331762,15.8177785 C16.6037972,11.313868 14.3781699,6.43682832 10.0040574,4.57894737 C10.0040574,8.84622936 4.14147452,11.5603049 3.84911475,15.8177785 C3.68026415,18.275813 4.8761695,20.6284068 6.96515702,21.94805 Z" id="Logo/Flame" fill="#E43C00"></path>
                    <path d="M8.46591185,22.4213934 C9.51040561,23.081215 10.3353993,22.8816755 11.1166667,22.809134 C11.897934,22.7365925 13.6880729,21.5977914 14.206832,20.5645342 C14.7255911,19.5311747 14.6810703,18.30604 14.0886571,17.3128338 C14.036853,18.2408547 13.4299756,19.0468833 12.5499214,19.3562576 C13.2852319,17.1043024 12.1724183,14.6657826 9.98536201,13.7368421 C9.98536201,15.8704831 7.05407059,17.2275209 6.90789071,19.3562576 C6.82346541,20.5852749 7.42141808,21.7615718 8.46591185,22.4213934 Z" id="Logo/Flame" fill="#F8E71C" opacity="0.400000006"></path>
                </g>
                <g id="Logo/Flame/Orange" opacity="0.800000012" transform="translate(-6.680412, 5.845361)" fill-rule="nonzero">
                    <path d="M7.26798994,22.7048793 C9.447803,24.0700273 11.1695289,23.6571872 12.8,23.5071012 C14.4304711,23.3570152 18.166413,21.0008752 19.2490407,18.8631015 C20.3316683,16.7251165 20.2387554,14.1903549 19.0024148,12.1354456 C18.8943019,14.055489 17.6277753,15.7231342 15.7911404,16.3632191 C17.3257014,11.7040014 15.0033077,6.65878792 10.4390164,4.73684211 C10.4390164,9.15127175 4.32153863,11.9589361 4.01646756,16.3632191 C3.84027564,18.9060134 5.08817687,21.3397312 7.26798994,22.7048793 Z" id="Logo/Flame" fill="#E43C00"></path>
                    <path d="M8.83399497,23.1945449 C9.9239015,23.8771189 10.7847645,23.6706988 11.6,23.5956559 C12.4152355,23.5206129 14.2832065,22.3425429 14.8245203,21.273656 C15.3658342,20.2046635 15.3193777,18.9372827 14.7012074,17.9098281 C14.6471509,18.8698497 14.0138876,19.7036724 13.0955702,20.0237148 C13.8628507,17.6941059 12.7016539,15.1714992 10.4195082,14.2105263 C10.4195082,16.4177411 7.36076931,17.8215733 7.20823378,20.0237148 C7.12013782,21.295112 7.74408844,22.5119709 8.83399497,23.1945449 Z" id="Logo/Flame" fill="#F8E71C" opacity="0.400000006"></path>
                </g>
                <g id="Logo/Flame/Orange" transform="translate(-3.896907, -3.061856)" fill-rule="nonzero">
                    <path d="M10.9019849,33.3004896 C14.1717045,35.3027067 16.7542934,34.6972078 19.2,34.4770818 C21.6457066,34.2569557 27.2496195,30.8012836 28.873561,27.6658822 C30.4975025,24.5301709 30.3581331,20.8125206 28.5036222,17.7986536 C28.3414528,20.6147171 26.4416629,23.0605968 23.6867106,23.999388 C25.9885521,17.1658687 22.5049616,9.76622228 15.6585246,6.94736842 C15.6585246,13.4218652 6.48230794,17.5397729 6.02470134,23.999388 C5.76041346,27.7288197 7.63226531,31.2982725 10.9019849,33.3004896 Z" id="Logo/Flame" fill="#E43C00"></path>
                    <path d="M13.2509925,34.0186658 C14.8858523,35.0197744 16.1771467,34.717025 17.4,34.6069619 C18.6228533,34.4968989 21.4248098,32.7690628 22.2367805,31.2013622 C23.0487512,29.6335065 22.9790666,27.7746813 22.0518111,26.2677479 C21.9707264,27.6757796 21.0208314,28.8987195 19.6433553,29.3681151 C20.794276,25.9513554 19.0524808,22.2515322 15.6292623,20.8421053 C15.6292623,24.0793537 11.041154,26.1383075 10.8123507,29.3681151 C10.6802067,31.2328309 11.6161327,33.0175573 13.2509925,34.0186658 Z" id="Logo/Flame" fill="#F8E71C" opacity="0.400000006"></path>
                </g>
            </g>
        </g>
    </g>
</svg>