<?xml version="1.0" encoding="UTF-8"?>
<svg width="151px" height="128px" viewBox="0 0 151 128" version="1.1" xmlns="http://www.w3.org/2000/svg" xmlns:xlink="http://www.w3.org/1999/xlink">
    <!-- Generator: Sketch 50.2 (55047) - http://www.bohemiancoding.com/sketch -->
    <title>Artboard Copy</title>
    <desc>Created with Sketch.</desc>
    <defs></defs>
    <g id="Artboard-Copy" stroke="none" stroke-width="1" fill="none" fill-rule="evenodd">
        <g id="noun_Rotate_452630" transform="translate(27.000000, 23.000000)" fill="#FFFFFF" fill-rule="nonzero">
            <g id="Group" transform="translate(0.562800, 0.738220)">
                <g id="Group-2">
                    <path d="M2.3555,0.26178 C1.2927,0.26178 0.4372,1.1173 0.4372,2.18001 L0.4372,70.277537 C0.4372,71.340198 1.2927,72.195789 2.3555,72.195789 L42.9742,72.195789 C44.0368,72.195789 44.8924,71.340198 44.8924,70.277537 L44.8924,2.18001 C44.8924,1.1173 44.0368,0.26178 42.9742,0.26178 L2.3555,0.26178 Z M20.5607,2.18001 L24.7629,2.18001 C25.0285,2.18001 25.2424,2.3939 25.2424,2.65957 C25.2424,2.92525 25.0285,3.13914 24.7629,3.13914 L20.5607,3.13914 C20.2951,3.13914 20.0811,2.92525 20.0811,2.65957 C20.0811,2.3939 20.2951,2.18001 20.5607,2.18001 Z M4.6692,5.05737 L40.6603,5.05737 L40.6603,63.293919 L4.6692,63.293919 L4.6692,5.05737 Z M19.5956,66.411104 L25.734,66.411104 C26.1591,66.411104 26.5013,66.753282 26.5013,67.178366 L26.5013,68.57507 C26.5013,69.000154 26.1591,69.342333 25.734,69.342333 L19.5956,69.342333 C19.1705,69.342333 18.8283,69.000154 18.8283,68.57507 L18.8283,67.178366 C18.8283,66.753282 19.1705,66.411104 19.5956,66.411104 Z" id="Shape"></path>
                    <path d="M23.4943,74.001112 L23.4943,78.510837 C23.4943,79.573498 24.3687,80.447879 25.4313,80.447879 L93.5002,80.447879 C94.5628,80.447879 95.4372,79.573498 95.4372,78.510837 L95.4372,37.893419 C95.4372,36.83066 94.5628,35.986643 93.5002,35.986643 L46.8296,35.986643 L46.8296,40.223922 L90.6249,40.223922 L90.6249,76.2106 L32.3926,76.2106 L32.3926,74.001112 L23.4943,74.001112 Z M93.0462,55.629528 C93.3119,55.629528 93.5002,55.848123 93.5002,56.113788 L93.5002,60.320753 C93.5002,60.586418 93.3119,60.805013 93.0462,60.805013 C92.7804,60.805013 92.562,60.586418 92.562,60.320753 L92.562,56.113788 C92.562,55.848123 92.7804,55.629528 93.0462,55.629528 Z" id="Shape"></path>
                </g>
            </g>
        </g>
    </g>
</svg>